<svg width="1362" height="358" viewBox="0 0 1362 358" fill="none" xmlns="http://www.w3.org/2000/svg">
<path d="M159.197 0C210.752 32.194 270.166 65.083 323.101 96.337L322.946 109.13C291.684 129.147 260.879 152.522 230.549 174.097L182.341 143.304C197.925 133.154 214.388 120.967 229.645 110.093C210.548 97.456 179.482 80.711 158.965 68.81C125.704 87.017 92.724 107.059 59.36 125.58L59.446 232.638L159.047 290.154L185.495 274.901C214.674 258.178 244.122 240.318 273.163 223.192C287.429 232.915 309.17 246.505 322.022 256.615C323.117 262.214 321.854 263.53 317.006 266.36C300.132 276.209 283.136 285.875 266.197 295.619L159.153 357.453C143.373 347.406 121.933 335.955 105.441 326.417L0 265.179L0.0230103 92.224C51.844 61.047 106.714 30.296 159.197 0Z" fill="#0858F5"/>
<path d="M502.714 88.1493C545.644 83.7763 584.154 102.515 600.864 143.869L571.334 153.842C570.074 150.945 568.444 147.89 566.904 145.134C559.554 131.774 547.114 121.953 532.414 117.904C467.174 99.9433 426.614 173.827 457.564 226.828C465.764 241.14 479.414 251.518 495.394 255.591C514.934 260.631 531.924 257.833 549.094 247.789C559.664 240.287 566.184 231.885 570.724 219.821C580.754 223.231 590.824 226.504 600.934 229.638C597.904 237.377 593.814 244.658 588.784 251.271C558.604 290.407 487.044 295.857 451.004 265.197C385.258 209.254 413.947 98.1773 502.714 88.1493Z" fill="#212935"/>
<path d="M956.594 144.03C960.054 143.637 963.534 143.431 967.014 143.413C997.924 143.343 1023.53 158.563 1031.11 189.938C1033.96 201.725 1033.62 210.705 1033.54 222.725L931.174 222.787C931.204 223.04 931.234 223.292 931.264 223.544C935.154 253.857 962.884 270.234 990.994 253.723C996.534 250.471 1000.02 245.531 1003.88 240.449L1006.61 240.701C1014.25 243.881 1023.79 246.883 1031.76 249.589C1021.72 267.918 1009.73 278.021 988.274 282.67C916.724 298.174 879.014 230.898 911.544 171.785C920.294 155.879 938.954 147.677 956.594 144.03ZM931.294 201.415C945.684 201.044 960.084 200.926 974.484 201.061C983.424 201.051 994.584 200.739 1003.34 201.192C998.324 176.148 985.734 165.728 959.394 169.007C940.184 175.429 936.134 182.674 931.294 201.415Z" fill="#212935"/>
<path d="M1289.36 144.075C1329.13 140.788 1362.08 152.203 1361.56 197.725C1361.47 206.218 1361.56 215.179 1361.54 223.706L1361.41 281.539L1330.77 281.546C1330.69 273.962 1330.69 266.379 1330.76 258.796C1316.41 278.475 1301.38 287.373 1276.05 283.844C1262.48 281.953 1252.22 275.6 1244.06 264.62C1239.92 257.953 1237.75 250.248 1237.81 242.4C1238.11 195.448 1298.66 200.331 1330.52 200.698C1330.58 195.793 1330.79 188.96 1328.7 184.486C1317.66 160.844 1280.37 162.525 1271.04 186.934C1261.73 183.348 1252.33 180.007 1242.85 176.917C1253.55 155.76 1266.6 148.65 1289.36 144.075ZM1296.22 260.4C1321.77 258.052 1331.14 245.306 1330.32 220.33C1321.59 220.495 1312.19 220.518 1303.55 221.165C1293.47 221.859 1279.09 222.819 1272.76 231.438C1258.71 250.543 1280.16 261.36 1296.22 260.4Z" fill="#212935"/>
<path d="M669.444 144.126C697.874 140.623 732.934 147.609 739.784 180.467C742.334 192.706 741.354 208.824 741.334 221.669L741.174 281.548L711.394 281.499L711.054 257.697C692.234 290.063 650.194 294.333 625.734 266.584C620.624 258.869 618.184 251.504 618.324 242.208C619.024 194.708 678.134 200.232 710.254 200.692C710.274 190.967 711.114 184.012 703.714 176.013C698.374 170.246 690.234 168.721 682.574 168.497C671.834 168.185 662.684 170.472 655.364 178.928C653.384 181.21 653.624 183.222 650.724 186.041C646.364 185.639 628.564 178.764 623.264 176.91C634.154 155.765 646.694 148.912 669.444 144.126ZM675.234 260.389C702.224 258.587 710.774 245.942 710.264 220.341C702.424 220.523 692.624 220.513 684.974 221.178C673.364 221.904 661.414 222.222 652.994 231.548C647.124 238.046 646.254 247.578 653.654 253.531C660.564 259.101 666.604 259.924 675.234 260.389Z" fill="#212935"/>
<path d="M820.874 143.224C847.154 142.719 869.844 150.951 881.434 175.857C872.524 179.016 863.674 182.306 854.874 185.728C845.434 167.687 821.304 161.771 803.884 174.304C795.824 184.44 802.744 194.304 812.404 196.813C840.134 204.017 886.074 203.326 884.804 242.981C883.704 277.373 849.564 284.341 821.634 284.544C794.804 282.337 774.864 275.334 764.264 248.838C772.544 246.422 783.444 242.223 791.784 239.287C801.414 257.483 809.804 259.833 829.324 260.009C856.324 260.251 865.834 233.983 835.024 228.001C818.354 224.765 793.494 221.835 780.174 210.835C773.874 205.709 769.904 198.254 769.174 190.161C766.274 157.989 793.474 145.702 820.874 143.224Z" fill="#212935"/>
<path d="M1142 147.041L1174.95 146.988C1171.44 154.822 1167.91 164.383 1164.69 172.463C1159.09 185.191 1153.13 201.802 1147.99 214.973C1139.25 237.117 1130.66 259.321 1122.22 281.582C1110.62 281.505 1099.02 281.519 1087.42 281.624C1070.5 236.627 1051.29 192.057 1034.19 147.063L1066.75 147.024C1074.54 166.258 1081.77 187.077 1089.25 206.596C1093.83 218.542 1102.53 240.499 1105.04 252.4C1107.78 240.154 1113.16 227.067 1117.37 215.14C1125.36 192.499 1134.5 169.82 1142 147.041Z" fill="#212935"/>
<path d="M1188.73 157.135C1188.61 153.992 1188.03 149.861 1189.6 147.328C1194.11 146.822 1216.31 146.318 1219.77 147.826L1215.69 148.927C1215.04 155.65 1215.75 186.983 1215.86 194.832C1216.27 222.5 1215.28 251.642 1216.03 279.092L1216.8 279.529C1217.62 275.092 1216.66 254.753 1216.83 248.347C1217.7 216.924 1215.6 181.712 1217.5 150.743C1219.05 158.233 1218.61 180.547 1218.59 189.48L1218.42 253.732C1218.41 258.77 1218.15 276.773 1219.2 280.825C1217.26 282.124 1192.83 281.57 1188.58 281.557C1188.61 253.355 1187.66 220.924 1188.86 193.154C1192.3 204.017 1190.53 249.32 1190.94 262.263C1191.08 266.636 1190.36 275.844 1191.51 279.735C1192.76 277.68 1192.11 150.033 1191.35 149.037L1188.73 157.135Z" fill="#212935"/>
<path d="M1201.02 93.2984C1207.06 92.0774 1213.3 94.1674 1217.39 98.7834C1221.48 103.4 1222.8 109.845 1220.86 115.698C1218.86 121.709 1213.74 126.15 1207.51 127.273C1198.18 128.955 1189.23 122.811 1187.45 113.498C1185.67 104.185 1191.72 95.1754 1201.02 93.2984Z" fill="#212935"/>
<path d="M1219.2 280.825C1218.15 276.773 1218.41 258.77 1218.42 253.732L1218.59 189.48C1218.61 180.547 1219.05 158.233 1217.5 150.743C1215.6 181.712 1217.7 216.924 1216.83 248.347C1216.66 254.753 1217.62 275.092 1216.8 279.529L1216.03 279.092C1215.28 251.642 1216.27 222.5 1215.86 194.832C1215.75 186.983 1215.04 155.65 1215.69 148.927L1219.77 147.826C1219.48 177.756 1219.42 207.689 1219.59 237.62C1219.6 249.157 1220.2 270.097 1219.2 280.825Z" fill="#212935" fill-opacity="0.956863"/>
<path d="M1188.73 157.135L1191.35 149.037C1192.11 150.033 1192.76 277.68 1191.51 279.735C1190.36 275.844 1191.08 266.636 1190.94 262.263C1190.53 249.32 1192.3 204.017 1188.86 193.154C1188.09 189.59 1188.55 161.917 1188.73 157.135Z" fill="#212935" fill-opacity="0.964706"/>
</svg>
