<svg width="51" height="41" viewBox="0 0 51 41" fill="none" xmlns="http://www.w3.org/2000/svg">
<path d="M27.1638 19.6361L25.222 23.8009L23.6824 20.4989L23.2802 19.6361L25.222 15.4714L27.1638 19.6361Z" fill="#FE0000"/>
<path d="M27.1638 19.6361L25.222 23.8009L23.6824 20.4989L23.2802 19.6361L25.222 15.4714L27.1638 19.6361Z" fill="#FE0000"/>
<path d="M29.7155 27.5137H20.7264V31.034H29.7155V27.5137Z" fill="#FE0000"/>
<path d="M36.7561 40.2047H32.8638L31.2226 36.6843H31.2291L28.5953 31.034L26.9519 27.5137L25.222 23.8009V23.7987L24.5149 22.2807H24.5127L23.2802 19.6361L25.222 15.4714L26.4567 18.116L27.1638 19.6361L36.7561 40.2047Z" fill="#FE0000"/>
<path d="M27.1638 19.6361L26.3767 21.3206L25.222 23.7987V23.8009L24.4349 25.4854L23.4899 27.5137L21.8487 31.034H21.8076L17.5304 40.2047H13.6879L23.2802 19.6361L24.4349 17.1559L25.222 15.4714L27.1444 19.5907L27.1638 19.6361Z" fill="#FE0000"/>
<path d="M27.1638 19.6361L26.487 21.0849L25.222 23.8009L23.2802 19.6361L23.2759 19.6253L18.3781 9.12478L3.87499 40.2047H0L10.8595 16.9202L18.3781 0.795288L25.222 15.4714L27.1638 19.6361Z" fill="#FE0000"/>
<path d="M50.444 40.2047H46.5625L32.0637 9.12478L27.166 19.6296L27.1638 19.6361L25.222 23.8009L23.2802 19.6361L25.222 15.4714L32.0637 0.795288L39.1088 15.8995L50.444 40.2047Z" fill="#FE0000"/>
</svg>
