<svg width="357" height="79" viewBox="0 0 357 79" fill="none" xmlns="http://www.w3.org/2000/svg">
<path fill-rule="evenodd" clip-rule="evenodd" d="M2.38518 2H34.7288C53.8355 2 69.4677 17.6323 69.4677 36.7389V40.3343C69.4677 59.441 53.8355 75.0732 34.7288 75.0732H24.1796C23.6803 74.2059 23.5291 73.3335 23.9627 72.0779C26.2975 65.3358 27.543 68.1547 28.0624 62.7641C28.486 58.3921 31.5973 62.8448 36.0752 61.8665C39.9379 61.0193 38.1881 58.4627 38.2183 55.4926C40.9767 53.2637 40.6338 54.1159 39.5244 51.6954C42.1617 49.2195 40.2909 50.0667 40.1698 46.9099C44.4259 45.851 45.5151 47.6159 42.0961 39.9006C41.0221 37.4802 40.3968 36.9103 41.6272 34.8378C43.1652 32.2459 40.2808 26.4418 39.4992 23.4717C40.064 22.453 42.8677 19.9015 40.1547 14.7378L39.2067 16.8658C38.0318 15.6101 38.6823 14.9596 37.0636 12.5946L35.9592 13.588C31.915 17.4507 31.7789 15.126 22.6214 14.2335C19.1066 13.8906 15.955 13.9108 13.2168 14.642C14.3968 15 15.5566 15.4538 16.7114 16.0287C18.4108 16.8759 19.9841 17.9247 21.517 19.0392C22.1978 19.5333 22.9895 20.1385 23.5139 20.799C23.872 21.2529 24.0888 21.7168 24.1291 22.3018C24.1544 22.6295 24.114 22.9523 24.1392 23.28C24.1695 23.6885 24.2905 24.0717 24.462 24.4398C24.7645 25.1004 25.1377 25.6854 25.41 26.3712C26.8471 30.017 26.4588 32.0694 25.647 35.5186L25.8083 35.569L25.8235 35.574C25.9193 35.6093 26.0101 35.6446 26.1008 35.6951L27.5128 36.4767L26.0353 37.1272C25.8638 37.2028 25.4352 37.4045 25.3595 37.6012C25.1881 38.05 26.2521 39.7948 26.4689 40.173C27.3262 41.6303 28.723 43.0624 28.7633 44.8525L28.7684 45.0643L28.6675 45.2509C28.3599 45.8207 27.9767 46.2292 27.4573 46.6175C26.9883 46.9604 26.5849 47.1974 26.2067 47.6008C26.2319 47.8933 26.2924 48.1908 26.4286 48.448C26.5849 48.7505 26.7866 48.9472 26.8723 49.3052C26.9782 49.7389 26.8421 50.1423 26.6101 50.5104C26.4336 50.7928 26.2067 51.0802 25.9697 51.3475C26.3479 52.0837 26.5597 52.9208 26.0554 53.6621C25.7882 54.0554 25.415 54.2722 25.0267 54.5193C24.9057 54.595 24.6687 54.7412 24.6031 54.8723C24.1291 55.7649 24.4771 56.9045 24.1544 57.8979C23.9224 58.6089 23.4333 59.093 22.7827 59.4359C22.3188 59.678 21.8246 59.8292 21.3052 59.9049C20.2211 60.0663 19.1268 59.8797 18.0578 59.7133C17.256 59.5872 16.3836 59.446 15.5768 59.5469C14.4069 59.6931 13.6303 60.3436 12.9849 61.3067C11.7141 63.1977 11.0485 66.2233 10.6551 68.427C10.3929 69.8944 10.3576 71.0845 10.5694 72.3451C10.5997 72.5317 10.7913 73.278 10.7913 73.3738C11.0182 74.221 11.114 74.5488 11.467 75.0833H10.4787C9.8584 73.2125 9.30371 71.4728 9.86849 68.2858C12.526 53.3797 18.1738 60.9285 22.4197 58.7249C24.2502 57.7718 23.0349 56.138 23.9022 54.4992C24.4519 53.4654 26.5597 53.6873 24.9914 51.2517C27.2253 48.8161 25.4503 49.9809 25.3999 47.3285C26.3479 46.1384 27.301 46.1233 27.9767 44.8778C27.9414 43.3851 26.4992 41.7916 25.7932 40.5864C24.3208 38.0752 23.998 37.1625 25.7226 36.401C25.6722 36.3708 25.5865 36.3405 25.5562 36.3304L24.8805 36.1136C24.8603 36.0481 24.7595 36.0884 24.704 36.0682C25.5915 32.3114 26.1412 30.3902 24.6737 26.6737C24.3712 25.9123 24.0384 25.4333 23.7409 24.7827C22.5861 22.2412 24.704 22.3522 21.0582 19.6997C16.3534 16.2758 12.6016 14.4705 4.66446 14.2335C2.83902 14.178 1.32622 14.2285 0 14.41V4.42552C0 3.10434 1.07913 2.03026 2.39526 2.03026L2.38518 2Z" fill="#214333"/>
<path d="M34.7285 2C53.8352 2 69.4678 17.6326 69.4678 36.7393V40.334C69.4678 59.4406 53.8352 75.0732 34.7285 75.0732H24.1797C23.6805 74.2059 23.5293 73.3337 23.9629 72.0781C26.2976 65.3361 27.5431 68.1543 28.0625 62.7637C28.4862 58.3924 31.5975 62.8445 36.0752 61.8662C39.9378 61.019 38.1885 58.4623 38.2188 55.4922C40.9766 53.2638 40.6337 54.1157 39.5244 51.6953C42.1616 49.2195 40.291 50.0666 40.1699 46.9102C44.4259 45.8512 45.5146 47.6156 42.0957 39.9004C41.0217 37.4803 40.3967 36.9102 41.627 34.8379C43.165 32.246 40.2806 26.4418 39.499 23.4717C40.0638 22.4531 42.8672 19.901 40.1543 14.7373L39.207 16.8662C38.0321 15.6106 38.6821 14.9597 37.0635 12.5947L35.959 13.5879C31.9148 17.4505 31.7785 15.1259 22.6211 14.2334C19.9335 13.9712 17.4583 13.9222 15.2178 14.2402C16.0792 14.6717 17.1522 15.2133 18.2168 15.7686C19.8895 16.6409 21.6332 17.5917 22.4717 18.2012C23.0612 18.6291 23.8225 19.201 24.4189 19.8604L24.6631 20.1484L24.665 20.1504C25.1185 20.7253 25.436 21.3768 25.4932 22.2041C25.5094 22.4229 25.5036 22.6325 25.5 22.7852C25.496 22.9551 25.4939 23.0684 25.502 23.1738L25.5029 23.1768C25.5219 23.4326 25.5989 23.6973 25.7344 23.9883L25.7373 23.9941C25.874 24.2925 26.0256 24.5717 26.1992 24.9023C26.3666 25.2211 26.5485 25.5784 26.7051 25.9727L26.7061 25.9756C27.4628 27.8954 27.7592 29.4499 27.7383 31.0029C27.7209 32.2833 27.4834 33.53 27.1699 34.9121L28.3633 35.5723C28.6954 35.7563 28.895 36.1138 28.8779 36.4932C28.8605 36.8724 28.6296 37.2101 28.2822 37.3633L26.8281 38.0029C26.8822 38.1308 26.9493 38.2777 27.0283 38.4346C27.2797 38.9338 27.5698 39.4168 27.6963 39.6367C27.8899 39.9658 28.1193 40.3009 28.374 40.6719C28.622 41.033 28.896 41.4304 29.1445 41.8418C29.6405 42.6631 30.1026 43.6485 30.1289 44.7998L30.1338 45.0117C30.1378 45.1854 30.0972 45.3579 30.0146 45.5107L29.9131 45.6963C29.5244 46.4162 29.0349 46.9313 28.4219 47.3896L28.4141 47.3955C28.0833 47.6373 27.8584 47.7865 27.6689 47.9307L27.6787 47.9512L27.6836 47.96C27.7413 48.0716 27.7656 48.0927 27.8955 48.3047C28.0037 48.4814 28.133 48.7203 28.21 49.0391L28.2412 49.1875C28.3704 49.9222 28.1107 50.5534 27.8232 51.0107L27.8242 51.0117C27.724 51.1721 27.6112 51.3291 27.4951 51.4814C27.7747 52.2613 27.8887 53.2519 27.248 54.1943C26.8405 54.794 26.2616 55.1228 25.9297 55.334C25.9254 55.3368 25.9204 55.3401 25.916 55.3428C25.885 55.3622 25.8571 55.38 25.8291 55.3984C25.8215 55.4035 25.8134 55.4085 25.8066 55.4131C25.7282 55.6165 25.6984 55.8914 25.6875 56.3428C25.6765 56.7976 25.6889 57.5089 25.4717 58.1777L25.4707 58.1787C25.1398 59.1926 24.4373 59.8575 23.6152 60.291L23.6113 60.2939L23.6104 60.293C23.0385 60.5912 22.4358 60.7739 21.8174 60.8643L21.8184 60.8652C20.5541 61.0533 19.2972 60.8317 18.2705 60.6719L18.2568 60.6699L18.2158 60.6631C17.4019 60.5351 16.6915 60.4319 16.0674 60.5098C15.2777 60.6086 14.7259 61.0221 14.1816 61.834L14.1807 61.8359C13.0444 63.5272 12.4033 66.3467 12.0059 68.5732C11.7901 69.7807 11.7433 70.7536 11.8613 71.7305L11.9219 72.1504L11.9229 72.1562C11.9234 72.1595 11.9256 72.1743 11.9316 72.2031C11.9383 72.2344 11.9475 72.2741 11.958 72.3203C11.9794 72.4144 12.0056 72.5235 12.0322 72.6377C12.0579 72.7478 12.0849 72.8646 12.1055 72.9609C12.1156 73.0084 12.1255 73.0599 12.1338 73.1064C12.1348 73.1123 12.1365 73.1274 12.1396 73.1475C12.3505 73.9323 12.4176 74.1237 12.668 74.5029C12.8704 74.8099 12.888 75.2044 12.7139 75.5283C12.5395 75.852 12.2007 76.0545 11.833 76.0547H10.8447C10.4141 76.0545 10.0313 75.7778 9.89551 75.3691C9.25385 73.4337 8.6431 71.507 9.25 68.082C9.92305 64.307 10.8056 61.8174 11.8936 60.2207C13.0247 58.5609 14.3725 57.8771 15.8047 57.7188C17.1071 57.5749 18.5027 57.8858 19.5469 58.0332C20.6865 58.1941 21.5606 58.2045 22.3242 57.8086L22.5146 57.6943C22.6717 57.5845 22.7381 57.4874 22.7744 57.415C22.8356 57.2928 22.8749 57.1174 22.8896 56.7949C22.9147 56.2443 22.8146 55.0795 23.3848 54.002L23.3857 54.001C23.6508 53.5026 24.0764 53.2058 24.3467 53.0303C24.6914 52.8064 24.8085 52.7509 24.9199 52.6455C24.9213 52.6441 24.9225 52.6419 24.9238 52.6406C24.915 52.5503 24.8531 52.2864 24.5166 51.7637C24.271 51.3816 24.3141 50.8817 24.6211 50.5469C25.0587 50.0697 25.2896 49.782 25.4092 49.6084L25.4082 49.6064C25.3307 49.4864 25.227 49.32 25.1289 49.1064C24.9264 48.6653 24.7815 48.102 24.7666 47.3184C24.7623 47.0859 24.8387 46.8587 24.9834 46.6768C25.5638 45.9482 26.1678 45.5661 26.584 45.2754C26.8976 45.0563 27.1209 44.8799 27.3125 44.6123C27.2363 44.1982 27.0109 43.7038 26.6514 43.1201C26.4404 42.7778 26.2071 42.4398 25.9688 42.0928C25.738 41.7569 25.4947 41.4001 25.2969 41.0625C24.9279 40.4333 24.6107 39.8705 24.3789 39.374C24.152 38.8879 23.9663 38.3842 23.9277 37.8857C23.8924 37.4266 23.9839 36.9822 24.2324 36.584C24.0883 36.3621 24.032 36.0843 24.0967 35.8096C24.5497 33.8918 24.8798 32.5797 24.9395 31.2812C24.9968 30.0314 24.8004 28.762 24.1094 27.0117C23.9792 26.6846 23.8408 26.4124 23.6895 26.1289C23.5418 25.8525 23.3624 25.531 23.1973 25.1699L23.1963 25.167C22.5393 23.7206 22.7344 22.6408 22.707 22.375C22.6916 22.226 22.6727 21.8301 20.9355 20.5527C20.63 20.3321 19.2848 19.4572 16.5039 17.8682C15.2102 17.1289 13.0954 16.3634 10.9775 15.7334C8.87266 15.1073 6.86952 14.6455 5.84766 14.4883C5.65648 14.4588 5.48648 14.3764 5.34961 14.2588C5.12471 14.2492 4.89598 14.2403 4.66406 14.2334C2.8388 14.1779 1.32612 14.2286 0 14.4102V4.42578C0 3.1046 1.07937 2.03027 2.39551 2.03027L2.38477 2H34.7285Z" fill="#214333"/>
<path fill-rule="evenodd" clip-rule="evenodd" d="M112.755 17.0999C124.464 17.0999 133.954 26.5851 133.954 38.2891C133.954 49.9931 124.464 59.4784 112.755 59.4784C101.046 59.4784 91.5556 49.9931 91.5556 38.2891C91.5556 26.5851 101.046 17.0999 112.755 17.0999ZM112.755 0.887695C133.415 0.887695 150.156 17.6344 150.156 38.2891C150.156 58.9489 133.41 75.6905 112.755 75.6905C92.0952 75.6905 75.3535 58.9439 75.3535 38.2891C75.3535 17.6293 92.1002 0.887695 112.755 0.887695Z" fill="#214333"/>
<path fill-rule="evenodd" clip-rule="evenodd" d="M173.508 17.8769H192.967C197.687 17.8769 201.55 21.7396 201.55 26.4595V28.9556C201.55 33.6756 197.687 37.5382 192.967 37.5382H173.508C172.847 37.5382 172.308 36.9987 172.308 36.3381V19.067C172.308 18.4064 172.847 17.8668 173.508 17.8668V17.8769ZM185.857 54.2194L193.542 62.8221C201.732 71.9847 213.279 77.5467 226.985 78.2779C227.152 78.288 227.303 78.2023 227.374 78.051C227.449 77.8997 227.424 77.7283 227.313 77.6022L204.545 51.3148L204.082 50.5937C212.941 46.4234 217.737 38.2946 217.737 27.0344C217.737 10.8777 206.895 1.70508 187.819 1.70508H158.526C157.205 1.70508 156.131 2.77917 156.131 4.10034V72.2721C156.131 73.5933 157.205 74.6674 158.526 74.6674H170.205C171.526 74.6674 172.6 73.5933 172.6 72.2721V55.0211C172.6 54.3606 173.14 53.821 173.8 53.821H184.96C185.313 53.821 185.62 53.9571 185.852 54.2194H185.857Z" fill="#214333"/>
<path fill-rule="evenodd" clip-rule="evenodd" d="M328.332 0.00504266C316.567 0.00504266 306.462 4.30643 302.155 12.7428C306.83 20.1353 309.533 28.8945 309.533 38.2839C309.533 38.5512 309.528 38.8184 309.523 39.0857C320.596 45.6764 337.303 45.4747 337.303 53.1749C337.303 57.0577 333.42 58.8025 328.196 58.8025C321.701 58.8025 314.026 56.6291 307.339 52.6605C305.761 57.683 303.376 62.3475 300.34 66.5026C308.05 71.2881 317.757 73.8044 327.666 73.8044C344.004 73.8044 356.999 66.0337 356.999 51.304C357.135 25.8537 319.094 31.3452 319.094 20.4984C319.094 16.7467 322.578 15.1381 327.399 15.1381C333.152 15.1381 340.737 17.4577 348.285 21.512C348.583 21.6683 348.891 21.6986 349.213 21.5977C349.531 21.4969 349.773 21.2952 349.924 20.9976L355.971 9.02132C356.253 8.46159 356.056 7.77579 355.517 7.45305C347.635 2.72304 337.862 0 328.337 0L328.332 0.00504266Z" fill="#214333"/>
<path fill-rule="evenodd" clip-rule="evenodd" d="M294.203 56.7156C293.235 58.4251 292.141 60.0438 290.935 61.5566L290.92 61.5767L290.91 61.5868L290.814 61.7078C288.943 64.0426 286.77 66.1756 284.309 68.0414L284.264 68.0767L284.118 68.1877C281.561 70.114 278.818 71.6671 275.954 72.8471L275.787 72.9126L275.712 72.9429C274.693 73.3564 273.649 73.7295 272.585 74.0523L272.419 74.1027C272.197 74.1683 271.975 74.2338 271.753 74.2994C271.607 74.3397 271.461 74.3801 271.314 74.4204C271.178 74.4557 271.047 74.491 270.911 74.5263C270.679 74.5868 270.452 74.6423 270.22 74.6927L270.064 74.728C268.98 74.9801 267.895 75.1768 266.801 75.3281L266.726 75.3382L266.569 75.3583L266.549 75.3634L266.373 75.3835L266.337 75.3886L266.196 75.4037H266.181C262.807 75.8172 259.333 75.7718 255.843 75.2222L255.803 75.2171L255.667 75.197C252.757 74.728 249.964 73.9262 247.316 72.832L247.215 72.7916L247.155 72.7664L246.989 72.6958L246.827 72.6252L246.812 72.6202C245.889 72.2218 244.982 71.7831 244.084 71.3091L243.928 71.2284C243.726 71.1175 243.519 71.0065 243.317 70.8956C243.186 70.8199 243.055 70.7443 242.924 70.6687C242.803 70.5981 242.682 70.5275 242.561 70.4569C242.354 70.3358 242.153 70.2098 241.951 70.0887L241.815 70.003C240.902 69.4332 240.02 68.823 239.162 68.1826L239.132 68.1574L239.021 68.0717L238.956 68.0213L238.88 67.9607L238.779 67.8851L238.739 67.8498L238.608 67.7489L238.598 67.7439L238.456 67.633C236.106 65.7773 233.953 63.619 232.067 61.1733L231.997 61.0826L231.987 61.0674C229.833 58.2738 228.124 55.2432 226.868 52.0764L226.863 52.0612L226.803 51.9099L226.783 51.8595L226.737 51.7486L226.702 51.6578C226.394 50.856 226.112 50.0391 225.86 49.2172L225.809 49.0508C225.744 48.8289 225.678 48.607 225.613 48.3851C225.572 48.2389 225.532 48.0927 225.492 47.9464C225.456 47.8103 225.421 47.6792 225.386 47.543C225.325 47.311 225.27 47.0841 225.219 46.8522L225.179 46.6958C224.967 45.7831 224.796 44.8704 224.655 43.9526L224.65 43.9325L224.644 43.8871L224.619 43.7156V43.7106L224.594 43.5341L224.589 43.4937L224.569 43.3576C224.12 40.1 224.1 36.7416 224.554 33.3681L224.559 33.3429L224.574 33.2319C224.987 30.171 225.769 27.2261 226.878 24.4476L226.944 24.2812L226.954 24.261L227.015 24.1148L227.04 24.0543L227.045 24.0442C227.509 22.9146 228.028 21.8053 228.608 20.716L228.689 20.5597C228.8 20.358 228.911 20.1513 229.022 19.9496C229.097 19.8185 229.173 19.6873 229.248 19.5562C229.319 19.4352 229.39 19.3142 229.46 19.1932C229.581 18.9864 229.707 18.7847 229.828 18.583L229.914 18.4468C230.529 17.4585 231.19 16.5105 231.886 15.5927L231.891 15.5877L231.951 15.512L232.027 15.4112L232.062 15.3708L232.163 15.2397L232.168 15.2296L232.279 15.0884L232.299 15.0632C234.15 12.7234 236.303 10.5803 238.739 8.69938L238.83 8.62878C241.532 6.54112 244.452 4.87704 247.508 3.63151L247.644 3.57604L247.669 3.56595L247.836 3.5004L247.851 3.49535C248.784 3.12724 249.737 2.78938 250.705 2.49691L250.871 2.44648C251.093 2.38092 251.315 2.31537 251.537 2.24982C251.683 2.20947 251.829 2.16913 251.976 2.12879C252.112 2.09349 252.243 2.05819 252.379 2.0229C252.611 1.96238 252.838 1.90691 253.07 1.85649L253.226 1.81615C254.275 1.5741 255.329 1.37744 256.383 1.2312L256.428 1.22616L256.559 1.20598L256.645 1.1959L256.736 1.18581C259.656 0.797529 262.651 0.757188 265.672 1.08496L265.712 1.09L265.788 1.10009C269.726 1.53376 273.478 2.58263 276.952 4.14081L277.113 4.21141C277.819 4.5291 278.515 4.872 279.201 5.24011L279.357 5.3208C279.559 5.43174 279.766 5.54267 279.968 5.65361C280.099 5.72925 280.23 5.80489 280.361 5.88053C280.482 5.95113 280.603 6.02173 280.724 6.09232C280.931 6.21335 281.132 6.33941 281.334 6.46044L281.47 6.54616C282.212 7.01009 282.938 7.49923 283.644 8.01358L284.219 9.29946C284.521 9.97517 284.294 10.7517 283.679 11.1652L279.791 13.7471C279.251 14.1051 279.009 14.7304 279.166 15.3557C279.322 15.981 279.826 16.4247 280.472 16.4903L285.081 16.9643C285.817 17.0399 286.377 17.6249 286.427 18.3611L286.72 23.0205C286.76 23.666 287.179 24.1904 287.799 24.3669C288.419 24.5485 289.054 24.3266 289.433 23.8022L292.151 20.0454C292.584 19.4453 293.371 19.2537 294.037 19.5814L294.072 19.6016C294.985 21.18 295.771 22.8138 296.432 24.4829L296.467 24.5686L296.477 24.5989L296.518 24.7098L296.523 24.7149C296.941 25.794 297.314 26.9034 297.637 28.0279L297.642 28.0481L297.703 28.2599L297.713 28.2901C298.605 31.5023 299.044 34.775 299.064 38.0275L299.059 38.0124V38.2746C299.059 43.3727 298.035 48.2338 296.19 52.6613L296.144 52.7773L296.119 52.8428L296.099 52.8933L296.003 53.1202C295.509 54.2598 294.959 55.3793 294.349 56.4786L294.339 56.4937L294.233 56.6854L294.218 56.7106L294.203 56.7156ZM261.648 16.9693C273.417 16.9693 282.958 26.5101 282.958 38.2796C282.958 50.0492 273.417 59.5899 261.648 59.5899C249.878 59.5899 240.337 50.0492 240.337 38.2796C240.337 26.5101 249.878 16.9693 261.648 16.9693Z" fill="#214333"/>
<path fill-rule="evenodd" clip-rule="evenodd" d="M284.92 5.73344L290.346 8.42622L293.87 3.54492L294.249 9.59107L300.239 10.2063L295.197 13.5546L297.658 19.0511L292.232 16.3583L288.707 21.2396L288.329 15.1935L282.338 14.5783L287.381 11.2299L284.92 5.73344Z" fill="#C09A5B"/>
</svg>
